<svg width="202" height="49" viewBox="0 0 202 49" fill="none" xmlns="http://www.w3.org/2000/svg">
<path d="M14.312 35.288C14.184 35.352 14.024 35.384 13.832 35.384C13.192 35.384 12.6 34.984 12.056 34.184C11.512 33.352 11.24 32.264 11.24 30.92V22.76C11.24 20.712 11.064 19.224 10.712 18.296C10.392 17.368 9.832 16.904 9.032 16.904C7.336 16.904 6.376 18.216 6.152 20.84C6.056 21.8 5.768 22.488 5.288 22.904C4.84 23.32 4.2 23.528 3.368 23.528C2.568 23.528 1.976 23.368 1.592 23.048C1.24 22.696 1.064 22.248 1.064 21.704C1.064 20.744 1.624 19.832 2.744 18.968C3.864 18.072 5.208 17.352 6.776 16.808C8.376 16.264 9.784 15.992 11 15.992C12.408 15.992 13.544 16.44 14.408 17.336C15.304 18.2 15.752 19.528 15.752 21.32V29.816C15.752 30.744 15.912 31.464 16.232 31.976C16.584 32.488 17.064 32.744 17.672 32.744C18.12 32.744 18.584 32.632 19.064 32.408H19.112C19.24 32.408 19.32 32.488 19.352 32.648C19.416 32.776 19.384 32.872 19.256 32.936L14.312 35.288ZM5.096 35.336C3.72 35.336 2.68 35.032 1.976 34.424C1.272 33.816 0.92 32.968 0.92 31.88C0.92 31.016 1.128 30.328 1.544 29.816C1.96 29.272 2.472 28.856 3.08 28.568C3.72 28.248 4.6 27.896 5.72 27.512L6.92 27.08L11.72 25.304L11.912 26.024L9.176 27.272C9.08 27.304 8.76 27.432 8.216 27.656C7.672 27.848 7.192 28.184 6.776 28.664C6.392 29.144 6.2 29.704 6.2 30.344C6.2 31.112 6.44 31.72 6.92 32.168C7.432 32.584 8.008 32.792 8.648 32.792C9.16 32.792 9.688 32.616 10.232 32.264L12.632 30.632L12.68 31.4L9.32 33.8C8.584 34.344 7.896 34.744 7.256 35C6.616 35.224 5.896 35.336 5.096 35.336ZM28.2271 17.72C28.1631 19 28.1311 20.568 28.1311 22.424V37.304C28.1311 39.48 27.8591 41.256 27.3151 42.632C26.8031 44.04 25.9231 45.208 24.6751 46.136C23.4591 47.064 21.7631 47.864 19.5871 48.536C19.5231 48.568 19.4431 48.488 19.3471 48.296C19.2831 48.136 19.2991 48.04 19.3951 48.008C20.9311 47.336 22.0191 46.264 22.6591 44.792C23.2991 43.32 23.6191 41.192 23.6191 38.408V22.52C23.6191 21.432 23.5071 20.648 23.2831 20.168C23.0911 19.688 22.7391 19.448 22.2271 19.448C21.8111 19.448 21.2191 19.624 20.4511 19.976H20.4031C20.2751 19.976 20.1631 19.896 20.0671 19.736C20.0031 19.544 20.0191 19.432 20.1151 19.4L27.3631 16.04L27.5071 15.992C27.6671 15.992 27.8271 16.072 27.9871 16.232C28.1471 16.392 28.2271 16.536 28.2271 16.664V17.72ZM25.5871 11.24C24.6591 11.24 23.9391 10.984 23.4271 10.472C22.9151 9.96 22.6591 9.24 22.6591 8.312C22.6591 7.48 22.9151 6.824 23.4271 6.344C23.9711 5.832 24.6911 5.576 25.5871 5.576C26.4831 5.576 27.1711 5.816 27.6511 6.296C28.1311 6.776 28.3711 7.448 28.3711 8.312C28.3711 9.24 28.1311 9.96 27.6511 10.472C27.1711 10.984 26.4831 11.24 25.5871 11.24ZM43.1885 35.624C41.2045 35.624 39.4605 35.176 37.9565 34.28C36.4845 33.352 35.3485 32.12 34.5485 30.584C33.7485 29.016 33.3485 27.32 33.3485 25.496C33.3485 23.416 33.8765 21.656 34.9325 20.216C35.9885 18.744 37.3325 17.656 38.9645 16.952C40.5965 16.216 42.2765 15.848 44.0045 15.848C45.9885 15.848 47.7165 16.312 49.1885 17.24C50.6605 18.168 51.7805 19.4 52.5485 20.936C53.3485 22.44 53.7485 24.056 53.7485 25.784C53.7485 27.704 53.2685 29.416 52.3085 30.92C51.3485 32.392 50.0525 33.544 48.4205 34.376C46.8205 35.208 45.0765 35.624 43.1885 35.624ZM44.6285 34.616C45.8765 34.616 46.8205 34.008 47.4605 32.792C48.1325 31.544 48.4685 29.768 48.4685 27.464C48.4685 25.224 48.1805 23.304 47.6045 21.704C47.0285 20.104 46.2765 18.904 45.3485 18.104C44.4205 17.272 43.4285 16.856 42.3725 16.856C39.8125 16.856 38.5325 19.144 38.5325 23.72C38.5325 25.864 38.8045 27.768 39.3485 29.432C39.8925 31.064 40.6285 32.344 41.5565 33.272C42.4845 34.168 43.5085 34.616 44.6285 34.616ZM64.5129 35.576C62.7529 35.576 61.3609 35.032 60.3369 33.944C59.3449 32.824 58.8489 31.368 58.8489 29.576V22.52C58.8489 20.44 58.3529 19.4 57.3609 19.4C57.0089 19.4 56.6089 19.512 56.1609 19.736H56.1129C55.9849 19.736 55.8889 19.656 55.8249 19.496C55.7609 19.304 55.7769 19.192 55.8729 19.16L62.3049 16.088L62.5449 16.04C62.7049 16.04 62.8649 16.12 63.0249 16.28C63.2169 16.408 63.3129 16.536 63.3129 16.664V27.272C63.3129 30.728 64.6409 32.456 67.2969 32.456C68.1929 32.456 69.1049 32.2 70.0329 31.688C70.9929 31.176 71.7449 30.504 72.2889 29.672L72.5769 30.248C71.4249 31.912 70.1769 33.224 68.8329 34.184C67.4889 35.112 66.0489 35.576 64.5129 35.576ZM75.8409 29.432C75.8409 30.52 75.9369 31.288 76.1289 31.736C76.3529 32.184 76.7049 32.408 77.1849 32.408C77.6329 32.408 78.2889 32.232 79.1529 31.88H79.2489C79.3449 31.88 79.4249 31.96 79.4889 32.12C79.5849 32.28 79.5849 32.376 79.4889 32.408L72.8649 35.624C72.8009 35.656 72.7209 35.672 72.6249 35.672C72.2729 35.672 71.9689 35.256 71.7129 34.424C71.4889 33.592 71.3769 32.472 71.3769 31.064V22.52C71.3769 20.44 70.8809 19.4 69.8889 19.4C69.5369 19.4 69.1209 19.512 68.6409 19.736H68.5929C68.4969 19.736 68.4169 19.656 68.3529 19.496C68.2889 19.304 68.3049 19.192 68.4009 19.16L74.8329 16.088C74.8969 16.056 74.9769 16.04 75.0729 16.04C75.2329 16.04 75.3929 16.12 75.5529 16.28C75.7449 16.408 75.8409 16.536 75.8409 16.664V29.432ZM94.3153 35C94.2193 35 94.1713 34.904 94.1713 34.712C94.1713 34.52 94.2193 34.424 94.3153 34.424C95.3073 34.424 95.9793 34.2 96.3313 33.752C96.6833 33.272 96.8593 32.392 96.8593 31.112V24.2C96.8593 22.472 96.5393 21.192 95.8993 20.36C95.2913 19.528 94.3153 19.112 92.9713 19.112C91.9793 19.112 90.9713 19.368 89.9473 19.88C88.9553 20.36 88.1713 21 87.5953 21.8L87.3553 21.224C88.5073 19.56 89.7873 18.264 91.1953 17.336C92.6353 16.376 94.1553 15.896 95.7553 15.896C97.4833 15.896 98.8433 16.456 99.8353 17.576C100.859 18.664 101.371 20.104 101.371 21.896V31.112C101.371 32.392 101.547 33.272 101.899 33.752C102.283 34.2 102.971 34.424 103.963 34.424C104.059 34.424 104.107 34.52 104.107 34.712C104.107 34.904 104.059 35 103.963 35C103.131 35 102.475 34.984 101.995 34.952L99.1153 34.904L96.3313 34.952C95.8193 34.984 95.1473 35 94.3153 35ZM81.4033 35C81.3073 35 81.2593 34.904 81.2593 34.712C81.2593 34.52 81.3073 34.424 81.4033 34.424C82.3953 34.424 83.0673 34.2 83.4193 33.752C83.7713 33.272 83.9473 32.392 83.9473 31.112V22.088C83.9473 21.096 83.8193 20.376 83.5633 19.928C83.3393 19.448 82.9713 19.208 82.4593 19.208C81.9153 19.208 81.1473 19.432 80.1553 19.88H80.0593C79.9633 19.88 79.8833 19.8 79.8193 19.64C79.7873 19.48 79.8033 19.384 79.8673 19.352L86.5393 16.088C86.7313 16.024 86.8433 15.992 86.8753 15.992C87.2593 15.992 87.6113 16.408 87.9313 17.24C88.2833 18.04 88.4593 19.112 88.4593 20.456V31.112C88.4593 32.392 88.6353 33.272 88.9873 33.752C89.3713 34.2 90.0593 34.424 91.0513 34.424C91.1473 34.424 91.1953 34.52 91.1953 34.712C91.1953 34.904 91.1473 35 91.0513 35C90.2193 35 89.5633 34.984 89.0833 34.952L86.2033 34.904L83.3713 34.952C82.8913 34.984 82.2353 35 81.4033 35ZM113.533 48.536C111.325 48.536 109.517 48.024 108.109 47C106.701 46.008 105.997 44.696 105.997 43.064C105.997 41.944 106.413 40.808 107.245 39.656C108.109 38.504 109.597 37.288 111.709 36.008L112.189 36.536C110.941 37.336 110.317 38.68 110.317 40.568C110.317 42.616 110.909 44.2 112.093 45.32C113.309 46.44 114.749 47 116.413 47C118.045 47 119.341 46.488 120.301 45.464C121.261 44.44 121.741 43.048 121.741 41.288C121.741 39.912 121.437 38.904 120.829 38.264C120.253 37.656 119.485 37.272 118.525 37.112C117.597 36.984 116.237 36.904 114.445 36.872C112.269 36.808 110.541 36.536 109.261 36.056C108.013 35.576 107.389 34.584 107.389 33.08C107.389 31.896 107.789 30.792 108.589 29.768C109.421 28.712 110.669 27.784 112.333 26.984L112.765 27.272C112.093 27.656 111.597 28.088 111.277 28.568C110.989 29.016 110.845 29.576 110.845 30.248C110.845 31.112 111.069 31.736 111.517 32.12C111.997 32.504 112.621 32.744 113.389 32.84C114.157 32.936 115.293 33 116.797 33.032C118.685 33.064 120.221 33.176 121.405 33.368C122.621 33.56 123.629 34.04 124.429 34.808C125.261 35.544 125.677 36.68 125.677 38.216C125.677 40.008 125.117 41.688 123.997 43.256C122.909 44.856 121.421 46.136 119.533 47.096C117.677 48.056 115.677 48.536 113.533 48.536ZM114.349 28.616C112.845 28.616 111.517 28.312 110.365 27.704C109.245 27.064 108.381 26.248 107.773 25.256C107.165 24.264 106.861 23.224 106.861 22.136C106.861 20.856 107.277 19.768 108.109 18.872C108.941 17.976 109.997 17.304 111.277 16.856C112.589 16.376 113.917 16.136 115.261 16.136C116.701 16.136 117.981 16.408 119.101 16.952C120.253 17.464 121.149 18.184 121.789 19.112C122.461 20.008 122.797 21.016 122.797 22.136C122.797 23.416 122.381 24.552 121.549 25.544C120.717 26.536 119.645 27.304 118.333 27.848C117.053 28.36 115.725 28.616 114.349 28.616ZM115.597 27.752C116.301 27.752 116.893 27.4 117.373 26.696C117.853 25.992 118.093 24.92 118.093 23.48C118.093 22.104 117.869 20.936 117.421 19.976C116.973 18.984 116.397 18.248 115.693 17.768C115.021 17.288 114.349 17.048 113.677 17.048C112.237 17.048 111.517 18.264 111.517 20.696C111.517 22.04 111.709 23.256 112.093 24.344C112.477 25.4 112.973 26.232 113.581 26.84C114.221 27.448 114.893 27.752 115.597 27.752ZM119.389 18.44C120.445 17.608 121.469 17 122.461 16.616C123.453 16.2 124.509 15.992 125.629 15.992C125.885 15.992 126.013 16.44 126.013 17.336C126.013 17.816 125.949 18.328 125.821 18.872C125.693 19.384 125.565 19.592 125.437 19.496C124.125 18.952 122.941 18.68 121.885 18.68C121.085 18.68 120.317 18.808 119.581 19.064L119.293 19.976L119.389 18.44ZM141.237 35C141.141 35 141.093 34.904 141.093 34.712C141.093 34.52 141.141 34.424 141.237 34.424C142.229 34.424 142.901 34.2 143.253 33.752C143.605 33.272 143.781 32.392 143.781 31.112V24.2C143.781 22.472 143.461 21.192 142.821 20.36C142.213 19.528 141.237 19.112 139.893 19.112C138.901 19.112 137.893 19.368 136.869 19.88C135.877 20.36 135.093 21 134.517 21.8L134.277 21.224C135.429 19.56 136.709 18.264 138.117 17.336C139.557 16.376 141.077 15.896 142.677 15.896C144.405 15.896 145.765 16.456 146.757 17.576C147.781 18.664 148.293 20.104 148.293 21.896V31.112C148.293 32.392 148.469 33.272 148.821 33.752C149.205 34.2 149.893 34.424 150.885 34.424C150.981 34.424 151.029 34.52 151.029 34.712C151.029 34.904 150.981 35 150.885 35C150.053 35 149.397 34.984 148.917 34.952L146.037 34.904L143.253 34.952C142.741 34.984 142.069 35 141.237 35ZM128.325 35C128.229 35 128.181 34.904 128.181 34.712C128.181 34.52 128.229 34.424 128.325 34.424C129.317 34.424 129.989 34.2 130.341 33.752C130.693 33.272 130.869 32.392 130.869 31.112V22.088C130.869 21.096 130.741 20.376 130.485 19.928C130.261 19.448 129.893 19.208 129.381 19.208C128.837 19.208 128.069 19.432 127.077 19.88H126.981C126.885 19.88 126.805 19.8 126.741 19.64C126.709 19.48 126.725 19.384 126.789 19.352L133.461 16.088C133.653 16.024 133.765 15.992 133.797 15.992C134.181 15.992 134.533 16.408 134.853 17.24C135.205 18.04 135.381 19.112 135.381 20.456V31.112C135.381 32.392 135.557 33.272 135.909 33.752C136.293 34.2 136.981 34.424 137.973 34.424C138.069 34.424 138.117 34.52 138.117 34.712C138.117 34.904 138.069 35 137.973 35C137.141 35 136.485 34.984 136.005 34.952L133.125 34.904L130.293 34.952C129.813 34.984 129.157 35 128.325 35ZM167.031 35.288C166.903 35.352 166.743 35.384 166.551 35.384C165.911 35.384 165.319 34.984 164.775 34.184C164.231 33.352 163.959 32.264 163.959 30.92V22.76C163.959 20.712 163.783 19.224 163.431 18.296C163.111 17.368 162.551 16.904 161.751 16.904C160.055 16.904 159.095 18.216 158.871 20.84C158.775 21.8 158.487 22.488 158.007 22.904C157.559 23.32 156.919 23.528 156.087 23.528C155.287 23.528 154.695 23.368 154.311 23.048C153.959 22.696 153.783 22.248 153.783 21.704C153.783 20.744 154.343 19.832 155.463 18.968C156.583 18.072 157.927 17.352 159.495 16.808C161.095 16.264 162.503 15.992 163.719 15.992C165.127 15.992 166.263 16.44 167.127 17.336C168.023 18.2 168.471 19.528 168.471 21.32V29.816C168.471 30.744 168.631 31.464 168.951 31.976C169.303 32.488 169.783 32.744 170.391 32.744C170.839 32.744 171.303 32.632 171.783 32.408H171.831C171.959 32.408 172.039 32.488 172.071 32.648C172.135 32.776 172.103 32.872 171.975 32.936L167.031 35.288ZM157.815 35.336C156.439 35.336 155.399 35.032 154.695 34.424C153.991 33.816 153.639 32.968 153.639 31.88C153.639 31.016 153.847 30.328 154.263 29.816C154.679 29.272 155.191 28.856 155.799 28.568C156.439 28.248 157.319 27.896 158.439 27.512L159.639 27.08L164.439 25.304L164.631 26.024L161.895 27.272C161.799 27.304 161.479 27.432 160.935 27.656C160.391 27.848 159.911 28.184 159.495 28.664C159.111 29.144 158.919 29.704 158.919 30.344C158.919 31.112 159.159 31.72 159.639 32.168C160.151 32.584 160.727 32.792 161.367 32.792C161.879 32.792 162.407 32.616 162.951 32.264L165.351 30.632L165.399 31.4L162.039 33.8C161.303 34.344 160.615 34.744 159.975 35C159.335 35.224 158.615 35.336 157.815 35.336ZM179.266 21.368C181.026 19.352 182.434 17.96 183.49 17.192C184.578 16.392 185.506 15.992 186.274 15.992C187.01 15.992 187.714 16.264 188.386 16.808C189.09 17.32 189.442 17.944 189.442 18.68C189.442 19.352 189.234 19.912 188.818 20.36C188.402 20.776 187.858 20.984 187.186 20.984C186.706 20.984 186.306 20.888 185.986 20.696C185.698 20.504 185.394 20.216 185.074 19.832C184.786 19.512 184.53 19.288 184.306 19.16C184.114 19 183.874 18.92 183.586 18.92C183.234 18.92 182.786 19.112 182.242 19.496C181.73 19.88 180.866 20.712 179.65 21.992L179.266 21.368ZM173.794 35C173.698 35 173.65 34.904 173.65 34.712C173.65 34.52 173.698 34.424 173.794 34.424C174.786 34.424 175.458 34.2 175.81 33.752C176.162 33.272 176.338 32.392 176.338 31.112V22.088C176.338 21.096 176.21 20.376 175.954 19.928C175.73 19.448 175.362 19.208 174.85 19.208C174.306 19.208 173.538 19.432 172.546 19.88H172.45C172.354 19.88 172.274 19.8 172.21 19.64C172.178 19.48 172.194 19.384 172.258 19.352L178.93 16.088C179.122 16.024 179.234 15.992 179.266 15.992C179.65 15.992 180.002 16.408 180.322 17.24C180.674 18.04 180.85 19.112 180.85 20.456V31.112C180.85 32.392 181.154 33.272 181.762 33.752C182.37 34.2 183.49 34.424 185.122 34.424C185.25 34.424 185.314 34.52 185.314 34.712C185.314 34.904 185.25 35 185.122 35C184.002 35 183.122 34.984 182.482 34.952L178.594 34.904L175.762 34.952C175.282 34.984 174.626 35 173.794 35ZM191.789 35C191.725 35 191.693 34.904 191.693 34.712C191.693 34.52 191.725 34.424 191.789 34.424C192.781 34.424 193.453 34.2 193.805 33.752C194.189 33.272 194.381 32.392 194.381 31.112L194.429 6.728C194.429 5.608 194.317 4.808 194.093 4.328C193.901 3.848 193.549 3.608 193.037 3.608C192.621 3.608 192.013 3.784 191.213 4.136H191.165C191.069 4.136 190.973 4.056 190.877 3.896C190.813 3.704 190.813 3.592 190.877 3.56L197.933 0.247998L198.125 0.199999C198.285 0.199999 198.461 0.279999 198.653 0.439999C198.845 0.567999 198.941 0.695999 198.941 0.823999V31.112C198.941 32.392 199.117 33.272 199.469 33.752C199.821 34.2 200.493 34.424 201.485 34.424C201.613 34.424 201.677 34.52 201.677 34.712C201.677 34.904 201.613 35 201.485 35C200.685 35 200.045 34.984 199.565 34.952L196.637 34.904L193.757 34.952C193.277 34.984 192.621 35 191.789 35Z" fill="white"/>
</svg>
